<svg width="34" height="33" viewBox="0 0 34 33" fill="none" xmlns="http://www.w3.org/2000/svg">
<path d="M21.3637 31.5454C20.5604 31.5454 19.9091 30.8942 19.9091 30.0909C19.9091 29.2876 20.5604 28.6364 21.3637 28.6364C22.167 28.6364 22.8182 29.2876 22.8182 30.0909C22.8182 30.8942 22.167 31.5454 21.3637 31.5454Z" stroke="white" stroke-width="2" stroke-linecap="round" stroke-linejoin="round"/>
<path d="M5.36369 31.5454C4.56037 31.5454 3.90915 30.8942 3.90915 30.0909C3.90915 29.2876 4.56037 28.6364 5.36369 28.6364C6.16702 28.6364 6.81824 29.2876 6.81824 30.0909C6.81824 30.8942 6.16702 31.5454 5.36369 31.5454Z" stroke="white" stroke-width="2" stroke-linecap="round" stroke-linejoin="round"/>
<path d="M33 1H27.1818L23.2836 20.4764C23.1506 21.146 22.7863 21.7476 22.2545 22.1757C21.7226 22.6038 21.0572 22.8313 20.3745 22.8182H6.23636C5.55374 22.8313 4.88826 22.6038 4.35643 22.1757C3.82459 21.7476 3.46028 21.146 3.32727 20.4764L0.999999 8.27273H25.7273" stroke="white" stroke-width="2" stroke-linecap="round" stroke-linejoin="round"/>
</svg>
